{
    "asset" : {
        "generator" : "Khronos glTF Blender I/O v1.7.33",
        "version" : "2.0"
    },
    "scene" : 0,
    "scenes" : [
        {
            "name" : "Scene",
            "nodes" : [
                0
            ]
        }
    ],
    "nodes" : [
        {
            "mesh" : 0,
            "name" : "Sphere",
            "scale" : [
                0.05000003054738045,
                0.25,
                0.05000004917383194
            ]
        }
    ],
    "meshes" : [
        {
            "name" : "Sphere",
            "primitives" : [
                {
                    "attributes" : {
                        "POSITION" : 0,
                        "NORMAL" : 1,
                        "TEXCOORD_0" : 2
                    },
                    "indices" : 3
                }
            ]
        }
    ],
    "accessors" : [
        {
            "bufferView" : 0,
            "componentType" : 5126,
            "count" : 2840,
            "max" : [
                0.9999996423721313,
                2.275933265686035,
                0.9999993443489075
            ],
            "min" : [
                -0.9999991059303284,
                0.2759333848953247,
                -0.9999988079071045
            ],
            "type" : "VEC3"
        },
        {
            "bufferView" : 1,
            "componentType" : 5126,
            "count" : 2840,
            "type" : "VEC3"
        },
        {
            "bufferView" : 2,
            "componentType" : 5126,
            "count" : 2840,
            "type" : "VEC2"
        },
        {
            "bufferView" : 3,
            "componentType" : 5123,
            "count" : 2880,
            "type" : "SCALAR"
        }
    ],
    "bufferViews" : [
        {
            "buffer" : 0,
            "byteLength" : 34080,
            "byteOffset" : 0
        },
        {
            "buffer" : 0,
            "byteLength" : 34080,
            "byteOffset" : 34080
        },
        {
            "buffer" : 0,
            "byteLength" : 22720,
            "byteOffset" : 68160
        },
        {
            "buffer" : 0,
            "byteLength" : 5760,
            "byteOffset" : 90880
        }
    ],
    "buffers" : [
        {
            "byteLength" : 96640,
            "uri" : "data:application/octet-stream;base64,"
        }
    ]
}
